<svg width="274" height="237" viewBox="0 0 274 237" fill="none" xmlns="http://www.w3.org/2000/svg">
<g clip-path="url(#clip0_1428_7696)">
<path d="M121.051 9C116.957 9 113.663 12.141 113.663 16.0453C113.663 19.9495 116.957 23.0905 121.051 23.0905H128.963L139.615 41.8779H93.6213L85.186 30.7229C83.8007 28.8735 81.5533 27.7874 79.1828 27.7874H61.9428C57.8483 27.7874 54.5543 30.9284 54.5543 34.8326C54.5543 38.7369 57.8483 41.8779 61.9428 41.8779H75.3962L82.1998 50.89L74.0108 66.4776C70.9322 65.7437 67.6997 65.3621 64.4057 65.3621C42.6402 65.3621 25 82.1827 25 102.937C25 123.691 42.6402 140.512 64.4057 140.512C84.5087 140.512 101.071 126.157 103.504 107.634H118.588C121.205 107.634 123.607 106.313 124.961 104.17L151.067 62.045L157.748 73.8164C148.882 80.7149 143.217 91.1948 143.217 102.937C143.217 123.691 160.857 140.512 182.623 140.512C204.388 140.512 222.028 123.691 222.028 102.937C222.028 82.1827 204.388 65.3621 182.623 65.3621C178.467 65.3621 174.465 65.9786 170.709 67.1234L140.569 13.9317C138.845 10.8787 135.521 9 131.888 9H121.051ZM166.183 88.7583L176.127 106.283C178.066 109.718 182.561 110.98 186.132 109.131C189.703 107.281 191.058 102.996 189.118 99.5904L179.175 82.0653C180.283 81.8891 181.453 81.8011 182.623 81.8011C194.875 81.8011 204.788 91.2535 204.788 102.937C204.788 114.62 194.875 124.073 182.623 124.073C170.37 124.073 160.457 114.62 160.457 102.937C160.457 97.4768 162.612 92.5158 166.183 88.7583ZM66.0065 107.634H86.0172C83.7699 117.057 74.9344 124.073 64.4057 124.073C52.153 124.073 42.24 114.62 42.24 102.937C42.24 91.2535 52.153 81.8011 64.4057 81.8011C64.929 81.8011 65.4524 81.8304 65.9757 81.8598L58.5256 96.0971C55.7549 101.41 59.7878 107.663 66.0065 107.663V107.634ZM76.3813 93.5432L91.9897 63.8063L114.432 93.5138L114.402 93.5432H76.3505H76.3813ZM104.273 55.9684H137.645L122.591 80.2746L104.242 55.9684H104.273Z" fill="black"/>
</g>
<path d="M25.245 150.35C30.685 150.35 34.9917 151.597 38.165 154.09C41.3383 156.527 42.925 159.813 42.925 163.95C42.925 170.58 40.205 175.198 34.765 177.805C42.1317 180.355 45.815 185.058 45.815 191.915C45.815 197.072 43.605 201.378 39.185 204.835C34.765 208.235 29.2117 209.935 22.525 209.935C19.0117 209.935 13.77 209.623 6.8 209L7.82 188.345L6.8 150.35H25.245ZM24.14 183.755H17.255L17.17 186.9L17.765 200.755C21.0517 201.038 23.5733 201.18 25.33 201.18C28.3333 201.18 30.6567 200.443 32.3 198.97C34 197.44 34.85 195.23 34.85 192.34C34.85 189.45 34 187.297 32.3 185.88C30.6 184.463 27.88 183.755 24.14 183.755ZM22.185 158.935H18.02L17.51 175.51H23.035C25.925 175.51 28.135 174.745 29.665 173.215C31.195 171.628 31.96 169.39 31.96 166.5C31.96 161.457 28.7017 158.935 22.185 158.935ZM65.6266 165.735L64.6066 186.9L65.5416 206.875L54.1516 209L55.1716 188.345L54.2366 167.86L65.6266 165.735ZM53.6416 153.325C53.6416 151.398 54.3783 149.698 55.8516 148.225C57.325 146.695 59.025 145.93 60.9516 145.93C62.8783 145.93 64.3516 146.468 65.3716 147.545C66.3916 148.565 66.9016 150.123 66.9016 152.22C66.9016 154.317 66.165 156.13 64.6916 157.66C63.275 159.133 61.6033 159.87 59.6766 159.87C57.8066 159.87 56.3333 159.247 55.2566 158C54.18 156.753 53.6416 155.195 53.6416 153.325ZM89.6086 176.275C87.1153 176.275 85.1886 177.182 83.8286 178.995C82.4686 180.752 81.7886 183.472 81.7886 187.155C81.7886 190.838 82.4686 193.813 83.8286 196.08C85.2453 198.29 87.2853 199.395 89.9486 199.395C91.3086 199.395 92.6403 198.97 93.9436 198.12C95.2469 197.27 96.2386 196.42 96.9186 195.57L97.8536 194.21L102.104 198.63C101.934 198.913 101.707 199.31 101.424 199.82C101.197 200.33 100.574 201.237 99.5536 202.54C98.5903 203.843 97.5419 205.005 96.4086 206.025C95.3319 206.988 93.9153 207.895 92.1586 208.745C90.4019 209.538 88.5603 209.935 86.6336 209.935C82.3836 209.935 78.9269 208.207 76.2636 204.75C73.6003 201.293 72.2686 196.788 72.2686 191.235C72.2686 184.322 74.2803 178.258 78.3036 173.045C82.3269 167.832 87.0303 165.225 92.4136 165.225C94.0569 165.225 95.7003 165.48 97.3436 165.99C98.9869 166.443 100.659 167.18 102.359 168.2L96.4086 178.655C94.3686 177.068 92.1019 176.275 89.6086 176.275ZM119.084 165.735L118.064 186.9L118.999 206.875L107.609 209L108.629 188.345L107.694 167.86L119.084 165.735ZM107.099 153.325C107.099 151.398 107.835 149.698 109.309 148.225C110.782 146.695 112.482 145.93 114.409 145.93C116.335 145.93 117.809 146.468 118.829 147.545C119.849 148.565 120.359 150.123 120.359 152.22C120.359 154.317 119.622 156.13 118.149 157.66C116.732 159.133 115.06 159.87 113.134 159.87C111.264 159.87 109.79 159.247 108.714 158C107.637 156.753 107.099 155.195 107.099 153.325ZM164.656 209.425L160.491 192.85H140.176L135.671 209L124.791 208.15L132.271 187.495L143.661 150.945L158.876 149.84L169.841 186.22L176.896 207.555L164.656 209.425ZM151.226 160.89H150.121L142.811 183.84H157.941L151.226 160.89ZM205.76 166.075C209.386 166.075 212.418 167.662 214.855 170.835C217.348 174.008 218.595 178.287 218.595 183.67C218.595 191.207 216.64 197.327 212.73 202.03C208.876 206.677 204.06 209 198.28 209C197.09 209 195.758 208.915 194.285 208.745L194.71 224.98L183.065 227.105L184.17 188.345H184.255C184.028 180.752 183.405 173.952 182.385 167.945L192.67 165.735C193.01 168.738 193.293 171.713 193.52 174.66C193.633 174.377 194.2 173.612 195.22 172.365C196.296 171.062 197.855 169.702 199.895 168.285C201.935 166.812 203.89 166.075 205.76 166.075ZM202.445 177.125C199.441 177.125 196.523 177.947 193.69 179.59V186.9L194.03 199.055C197.09 199.565 199.413 199.82 201 199.82C206.44 199.82 209.16 196.052 209.16 188.515C209.16 180.922 206.921 177.125 202.445 177.125ZM248.343 166.075C251.969 166.075 255.001 167.662 257.438 170.835C259.931 174.008 261.178 178.287 261.178 183.67C261.178 191.207 259.223 197.327 255.313 202.03C251.459 206.677 246.643 209 240.863 209C239.673 209 238.341 208.915 236.868 208.745L237.293 224.98L225.648 227.105L226.753 188.345H226.838C226.611 180.752 225.988 173.952 224.968 167.945L235.253 165.735C235.593 168.738 235.876 171.713 236.103 174.66C236.216 174.377 236.783 173.612 237.803 172.365C238.879 171.062 240.438 169.702 242.478 168.285C244.518 166.812 246.473 166.075 248.343 166.075ZM245.028 177.125C242.024 177.125 239.106 177.947 236.273 179.59V186.9L236.613 199.055C239.673 199.565 241.996 199.82 243.583 199.82C249.023 199.82 251.743 196.052 251.743 188.515C251.743 180.922 249.504 177.125 245.028 177.125Z" fill="black" fill-opacity="0.99"/>
<defs>
<clipPath id="clip0_1428_7696">
<rect width="197.028" height="150.299" fill="white" transform="translate(25.2178)"/>
</clipPath>
</defs>
</svg>
