<?xml version="1.0" encoding="utf-8"?>
<!-- Generator: Adobe Illustrator 23.0.2, SVG Export Plug-In . SVG Version: 6.00 Build 0)  -->
<svg version="1.1" id="Layer_1" xmlns="http://www.w3.org/2000/svg" xmlns:xlink="http://www.w3.org/1999/xlink" x="0px" y="0px"
	 viewBox="0 0 263.6699 270.3198" enable-background="new 0 0 263.6699 270.3198" xml:space="preserve">
<g>
	<path d="M112.9209,20.7583c-0.2549-0.1475-0.5244-0.2861-0.8193-0.3906c-0.8653-0.3086-1.8828-0.418-2.9473-0.2754
		c-2.7314,0.3691-4.7266,2.2803-4.459,4.2666c0.2676,1.9873,2.6973,3.2959,5.4297,2.9267c2.169-0.291,3.8555-1.5595,4.333-3.0634
		l0.0274,0.0009l4.5263-11.541c0.5342-1.3642,0.211-3.4062-0.7217-4.539l-0.0009-0.001l-6.1016-7.4043
		c-0.9316-1.1309-2.1318-0.9404-2.668,0.4248l-4.2168,10.7578c-0.2558-0.1465-0.5253-0.2842-0.8222-0.3887
		c-0.8653-0.3086-1.8828-0.4199-2.9473-0.2773c-2.7305,0.3711-4.7285,2.2803-4.459,4.2666
		c0.2686,1.9863,2.6992,3.2979,5.4317,2.9287c2.1699-0.291,3.8554-1.5605,4.331-3.0644l0.0303,0.0019l2.8682-7.3164
		c0.5351-1.3652,1.708-1.5342,2.6064-0.374l2.1523,2.7822c0.8965,1.1602,1.1934,3.2256,0.6583,4.5899L112.9209,20.7583z"/>
	<path d="M110.3838,219.0151H96.4863c-0.875-14.2265-7.9101-26.7793-18.4707-35.041l12.3086-17.957l4.1192-1.2813l16.5547,45.9473
		l3.0361-9.3223l-13.8428-38.414l12.4805-3.8867l-7.6299-3.9253l-6.8916,2.1455l-1.2647-3.5098
		c-0.3261-0.0781-0.6367-0.1484-0.9775-0.2344c-2.0596-0.5195-4.1767-1.1582-6.2236-2.0058l2.7158,7.5415l-4.8574,1.5137
		c-0.6406,0.1953-1.209,0.6171-1.5899,1.1738L73.0625,180.564c-7.2422-4.336-15.7129-6.834-24.7666-6.834
		C21.6211,173.73,0,195.353,0,222.023c0,26.6738,21.6211,48.2968,48.2959,48.2968c25.6572,0,46.6338-20.0156,48.1904-45.2851
		h16.7608C111.8428,223.2788,110.8643,221.2163,110.3838,219.0151z M48.2959,261.9663c-22.0244,0-39.9404-17.918-39.9404-39.9433
		c0-22.0215,17.916-39.9375,39.9404-39.9375c7.293,0,14.1299,1.9746,20.0205,5.4042l-22.5058,32.834
		c-0.625,0.918-0.6954,2.1211-0.1758,3.1016c0.5176,0.9844,1.5468,1.6094,2.6631,1.6094h39.8095
		C86.5625,245.6577,69.3027,261.9663,48.2959,261.9663z M54,219.0151l19.2734-28.1211c8.379,6.7364,13.9844,16.7735,14.834,28.1211
		H54z"/>
	<path d="M199.5703,114.6553c-0.1269,0.3281-0.2754,0.6426-0.4316,0.9502c3.5742-0.3418,6.3711-3.3516,6.3711-7.0166
		c0-3.8907-3.1563-7.0469-7.0508-7.0469c-1.1719,0-2.2734,0.29-3.2461,0.7959
		C199.4395,104.7607,201.3906,109.9814,199.5703,114.6553z"/>
	<path d="M197.1328,177.3062c-17.623,7.1992-30.0488,24.5039-30.0488,44.7168c0,26.6738,21.6211,48.2968,48.2891,48.2968
		c26.6718,0,48.2968-21.623,48.2968-48.2968c0-26.67-21.625-48.293-48.2968-48.293c-4.3399,0-8.5411,0.582-12.5411,1.6543
		l-18.8886-56.0513l-6.8223-2.6533c-0.0957,0.4961-0.0742,1.0195,0.0977,1.5283l4.4101,13.0859l-37.0039,11.5186l5.3145,2.7354
		c0.7246,0.373,1.4004,0.8046,2.0371,1.2763l31.5722-9.8291l2.8262,8.3867l-35.9668,38.1665l-4.3633,13.3985l42.5078-45.104
		L197.1328,177.3062z M212.5234,222.9839c0.4219,1.2558,1.5938,2.0508,2.8497,2.0508c0.3203,0,0.6425-0.0528,0.9609-0.1602
		c1.5742-0.5293,2.4219-2.2363,1.8906-3.8086v-0.0019l-12.7187-37.7422c3.1582-0.8047,6.4629-1.2363,9.8672-1.2363
		c22.0234,0,39.9433,17.916,39.9433,39.9375c0,22.0253-17.9199,39.9433-39.9433,39.9433c-22.0215,0-39.9375-17.918-39.9375-39.9433
		c0-16.502,10.0605-30.6993,24.373-36.7774L212.5234,222.9839z"/>
	<path d="M129.1719,42.915c0-2.4394,1.9785-4.4169,4.416-4.4169c2.4395,0,4.418,1.9775,4.418,4.4169
		c0,2.2872-1.7481,4.1475-3.9766,4.3726c-0.2519,0.4683-0.5566,1.0444-0.9082,1.7305c-1.0039,1.9629-2.3418,4.7573-3.6816,8.0508
		c-0.5293,1.3002-1.0567,2.6816-1.5635,4.1191c2.4248,1.8159,5.2529,3.1738,8.3935,3.9048
		c12.1309,2.8261,24.2539-4.7168,27.0743-16.8477c2.8281-12.1289-4.7168-24.25-16.8438-27.0742
		c-12.1309-2.8242-24.2549,4.7188-27.081,16.8477c-1.92,8.2514,0.9609,16.4961,6.8154,21.8154
		c2.041-5.6445,4.3437-10.2988,5.6836-12.834C130.3086,46.3408,129.1719,44.7622,129.1719,42.915z"/>
	<path d="M124.4717,104.4395c-3.1045,0.9404-6.5098,3.1933-9.4121,8.748l4.6699,1.7471
		C121.249,111.3145,122.8652,107.7939,124.4717,104.4395z"/>
	<path d="M127.665,66.2324c-0.3916-0.2158-0.7998-0.4135-1.2187-0.5996c-0.8506,2.9331-1.5479,6.002-1.9531,9.0674l9.6064,3.7363
		C133.8945,73.2109,131.8262,68.5234,127.665,66.2324z"/>
	<path d="M91.5537,150.1162c1.6094,0.5986,3.2481,1.0733,4.8447,1.4746c3.293,0.8321,5.9405,1.3633,8.1172,1.0176l23.5547,12.1235
		l-15.414,47.3301c-2.1387,6.584,1.4589,13.6543,8.038,15.8008c1.2872,0.418,2.5938,0.6172,3.8789,0.6172
		c5.2823,0,10.1924-3.3633,11.919-8.6563l18.707-57.4726c1.9121-5.8638-0.6972-12.2017-6.1777-15.022l-27.5518-14.1797
		l-2.5293,6.7598c-1.1591,3.0996-4.625,4.6777-7.7236,3.5176l-9.9873-3.7364c-3.0986-1.1601-4.6768-4.625-3.5176-7.7246
		l6.1914-16.5449c1.1592-3.0996,4.625-4.6777,7.7237-3.5176l1.539,0.5762c3.6045-7.082,8.3994-9.6563,12.4326-10.374
		c0.7657-1.5723,1.5196-3.1006,2.253-4.583l-13.4307-5.2227c-5.1494-2.0078-7.707-7.8301-5.706-12.9766
		c1.5097-3.8847,5.1796-6.3964,9.3447-6.3964c1.2422,0,2.4648,0.2304,3.6308,0.6836l0.8868,0.3447
		c0.4355-3.0791,1.1445-6.1299,1.9921-9.0347c-7.8144-2.4453-18.873-0.0444-26.4502,11.2525
		c-11.7851,17.7968-16.5781,30.1406-19.7851,52.33c-0.2734,4.0401,0.1455,7.3516,1.0615,10.086h-2.1269H75.957
		c-1.6591,0-3.0078,1.3496-3.0078,3.0097v5.5137c0,1.6582,1.3487,3.0039,3.0078,3.0039h6.8399H91.5537z"/>
	<path d="M123.2598,122.6631c0.7744-2.0684-0.2754-4.3731-2.3448-5.1484l-9.9892-3.7383c-2.0684-0.7735-4.374,0.2754-5.1484,2.3457
		l-6.1915,16.5449c-0.7744,2.0703,0.2754,4.375,2.3448,5.1484l9.9892,3.7383c2.0694,0.7754,4.3741-0.2754,5.1485-2.3437
		L123.2598,122.6631z M104.7315,126.0518l3.3876-9.0547l12.7989,4.789l-3.3877,9.0547L104.7315,126.0518z"/>
	<path d="M132.7305,104.0234c0.3359-0.0048,0.6386-0.0087,1.0273-0.1591c0.3906-0.1055,0.8887-0.7178,0.8399-1.2383
		c-0.0703-0.8975-0.4883-1.3242-1.1289-2.2012c-0.2461-0.3105-0.5508-0.6719-0.8887-1.0644l-3.3477-1.3008l-0.2715,0.247
		c0.1739,0.1895,0.3204,0.3526,0.4805,0.5293c1.1113,1.2295,1.9356,2.168,2.459,2.8291c0.0937,0.1202,0.1797,0.2325,0.2559,0.336
		c-0.7754-0.0557-1.9473-0.1817-3.3028-0.1836c-0.2832,0-0.5937,0.0195-0.8965,0.0322c-0.6738,0.0303-1.373,0.083-2.1171,0.209
		l0.3349,1.9736c0.2608-0.0449,0.5108-0.0644,0.7647-0.0937c0.665-0.0762,1.3125-0.1211,1.914-0.1211
		C130.4649,103.8154,131.7617,104.0186,132.7305,104.0234z"/>
	<path d="M187.3242,118.4971c0.9571,0.3711,1.9414,0.5449,2.9063,0.5449c3.2109,0,6.2441-1.9395,7.4765-5.1113
		c1.6055-4.1289-0.4394-8.7774-4.5664-10.3828l-72.1767-28.0684c-4.1289-1.606-8.7744,0.4394-10.3799,4.5693
		c-1.6055,4.126,0.4375,8.7744,4.5674,10.3799L187.3242,118.4971z"/>
</g>
</svg>
